<svg width="306" height="100" viewBox="0 0 306 100" fill="none" xmlns="http://www.w3.org/2000/svg">
<g opacity="0.8">
<path d="M63.7773 78.6612C58.6448 77.5984 53.8556 75.2275 50.0959 71.8884C40.4437 63.3158 37.4606 49.8489 42.5596 37.8664C43.8118 34.9238 45.8476 31.9374 48.3699 29.343L50.5936 27.0557L50.7505 40.4431C50.9006 53.2573 50.9344 53.9028 51.5406 55.5176C52.7532 58.748 54.0533 60.8048 56.2913 63.0337C62.0725 68.7911 70.5524 70.228 77.761 66.6717C84.5366 63.3289 88.8082 56.0605 88.3119 48.7187C87.9784 43.7871 86.32 40.1708 82.7393 36.5678C80.0317 33.8433 76.8462 32.0637 73.3781 31.338C69.8495 30.5997 70.0188 30.4918 70.0188 33.4785V36.057L71.9533 36.4134C79.4449 37.7938 84.3997 45.1504 82.8381 52.5747C82.3394 54.9459 81.227 57.0398 79.4412 58.9687C76.7274 61.8999 72.9094 63.301 69.5755 63.2945C64.063 63.2839 59.4599 60.1514 57.2289 55.519C57.2289 55.519 56.6445 54.195 56.4567 53.3768C55.3522 48.565 56.0581 38.4358 56.0581 38.4358L55.9726 23.6253L56.8469 23.1731C57.3278 22.9245 57.789 22.721 57.8718 22.721C57.9546 22.721 58.0597 29.5235 58.1054 37.8376C58.1054 37.8376 57.0437 48.7363 58.3557 52.9129C58.545 53.5155 58.9044 54.5461 58.9044 54.5461C60.0546 56.8894 61.898 58.9506 64.2932 60.0852C66.1114 60.9464 67.0268 61.3361 69.7167 61.3361C71.4741 61.3361 73.0311 60.7814 74.8226 59.9574C76.9344 58.9862 79.357 56.411 80.2523 54.0597C82.7188 47.5817 79.2843 40.6122 72.6678 38.6688C69.9637 37.8745 70.0188 37.8308 70.0188 40.7711V43.3395L71.3169 43.6867C75.9957 44.9381 77.4233 51.2094 73.7503 54.4317C72.4526 55.5702 71.2833 56.0735 69.2377 56.0735C67.052 56.0735 64.9539 54.7505 63.8753 52.7214C63.2274 51.5025 63.1727 50.3463 63.1727 49.8168C63.1727 44.9255 63.0668 36.1287 63.0668 36.1287L62.9793 21.039L63.651 20.8721C64.0204 20.7804 65.5137 20.5533 66.9693 20.3675C71.9058 19.7376 79.2092 21.3531 84.1157 24.1604C90.805 27.9877 95.8666 34.5625 97.974 42.1619C98.6989 44.7759 98.7797 45.536 98.7797 49.741C98.7797 53.9273 98.6971 54.7125 97.9875 57.2694C95.1212 67.5979 87.83 74.9814 77.4045 78.1128C75.2104 78.7718 74.1826 78.8975 70.3109 78.9801C67.1866 79.0467 65.1615 78.9479 63.7773 78.6612Z" fill="#C60C30"/>
<path d="M264.854 47.3994C265.22 47.6841 265.551 48.0043 265.9 48.3067C265.9 46.5277 265.9 44.7487 265.9 42.9697C263.808 41.6355 261.525 41.2085 259.137 41.6532C254.275 42.5605 251.259 46.67 251.538 51.9003C251.8 56.6858 254.292 60.0482 258.405 61.0444C261.002 61.6671 263.53 61.4002 265.9 60.0659C265.9 58.2869 265.9 56.5079 265.9 54.7289C265.464 55.0669 265.046 55.4405 264.575 55.7252C262.693 56.8815 260.741 57.1484 258.841 55.8675C256.976 54.6044 256.558 52.6475 256.889 50.5305C257.534 46.4032 261.63 44.8199 264.854 47.3994Z" fill="black"/>
<path d="M168.961 60.7421C167.27 60.7421 165.649 60.7421 163.976 60.7421C163.976 54.5333 163.976 48.3424 163.976 42.1159C165.58 42.1159 167.148 42.1159 168.821 42.1159C168.821 45.745 168.821 49.3564 168.821 52.95C168.891 52.9856 168.961 53.0034 169.048 53.039C171.366 49.3742 173.684 45.7273 175.985 42.0803C177.675 42.0803 179.296 42.0803 180.969 42.0803C180.969 48.289 180.969 54.48 180.969 60.7243C179.383 60.7243 177.815 60.7243 176.142 60.7243C176.142 57.0951 176.142 53.5015 176.142 49.9079C176.054 49.8723 175.985 49.8545 175.898 49.819C173.58 53.4659 171.261 57.1307 168.961 60.7421Z" fill="black"/>
<path d="M220.079 42.1335C220.079 45.7805 220.079 49.3741 220.079 52.9677C220.149 52.9855 220.201 53.0033 220.271 53.0388C222.572 49.3919 224.872 45.7627 227.19 42.0979C228.863 42.0979 230.502 42.0979 232.21 42.0979C232.21 48.3245 232.21 54.4976 232.21 60.7419C230.606 60.7419 229.02 60.7419 227.33 60.7419C227.33 57.1128 227.33 53.5192 227.33 49.9256C227.26 49.9078 227.19 49.8722 227.103 49.8544C224.802 53.4836 222.502 57.1305 220.201 60.7775C218.563 60.7775 216.942 60.7775 215.234 60.7775C215.234 54.5866 215.234 48.3956 215.234 42.1513C216.785 42.1335 218.354 42.1335 220.079 42.1335Z" fill="black"/>
<path d="M151.304 49.3919C152.437 49.3919 153.518 49.3029 154.581 49.4097C155.801 49.552 157.073 49.7121 158.223 50.1391C160.193 50.8862 161.117 52.4873 161.204 54.6221C161.291 56.8637 160.663 58.7672 158.607 59.8168C157.701 60.2794 156.637 60.653 155.626 60.6886C152.524 60.7953 149.422 60.7241 146.25 60.7241C146.25 54.5332 146.25 48.36 146.25 42.0979C150.711 42.0979 155.191 42.0979 159.705 42.0979C159.705 43.5389 159.705 44.9621 159.705 46.4743C156.934 46.4743 154.162 46.4743 151.322 46.4743C151.304 47.4705 151.304 48.36 151.304 49.3919ZM151.287 57.1305C152.507 57.0594 153.657 57.0772 154.755 56.8993C155.679 56.757 156.097 56.0454 156.097 55.0847C156.097 54.124 155.679 53.4302 154.755 53.2879C153.622 53.11 152.472 53.1278 151.304 53.0566C151.287 54.462 151.287 55.7073 151.287 57.1305Z" fill="black"/>
<path d="M235.416 42.0979C237.09 42.0979 238.711 42.0979 240.436 42.0979C240.436 44.6241 240.436 47.1147 240.436 49.6054C240.506 49.6231 240.575 49.6587 240.645 49.6765C241.534 48.4134 242.423 47.1503 243.294 45.905C244.183 44.6597 245.055 43.3966 245.978 42.0979C247.913 42.0979 249.865 42.0979 251.991 42.0979C249.639 45.1578 247.373 48.111 245.072 51.1175C247.425 54.3019 249.761 57.4508 252.166 60.7241C249.97 60.7241 247.896 60.7241 245.769 60.7241C244.079 58.1802 242.371 55.5828 240.663 53.0033C240.61 53.021 240.541 53.0388 240.488 53.0566C240.488 55.5828 240.488 58.109 240.488 60.7063C238.78 60.7063 237.142 60.7063 235.434 60.7063C235.416 54.551 235.416 48.3778 235.416 42.0979Z" fill="black"/>
<path d="M198.555 60.7241C198.555 54.5154 198.555 48.36 198.555 42.1513C198.695 42.1157 198.834 42.0623 198.973 42.0623C201.71 42.0623 204.429 42.009 207.165 42.1157C210.633 42.2402 212.934 44.7664 212.951 48.2711C212.969 51.8291 210.651 54.3553 207.165 54.5332C206.05 54.5865 204.917 54.551 203.697 54.551C203.697 56.668 203.697 58.6783 203.697 60.7241C201.954 60.7241 200.315 60.7241 198.555 60.7241ZM203.697 50.477C205.056 50.3881 206.503 50.8862 207.392 49.463C207.88 48.698 207.88 47.7552 207.322 47.0258C206.363 45.7627 204.986 46.243 203.697 46.1541C203.697 47.6306 203.697 48.9827 203.697 50.477Z" fill="black"/>
<path d="M131.628 43.0408C131.628 44.7487 131.628 46.4387 131.628 48.3067C130.094 46.7945 128.456 45.8516 126.347 46.2786C125.249 46.4921 124.343 47.0436 123.68 47.9687C122.112 50.0857 122.216 53.4836 123.907 55.2982C125.755 57.2729 128.369 57.1305 131.593 54.8356C131.593 56.5791 131.593 58.2513 131.593 59.9592C128.439 62.3964 122.652 61.667 119.742 58.447C116.5 54.8356 116.43 48.2711 119.62 44.5886C122.548 41.2084 128.142 40.4613 131.628 43.0408Z" fill="black"/>
<path d="M187.224 60.7063C187.224 56.0098 187.224 51.3488 187.224 46.5633C185.865 46.5633 184.575 46.5633 183.216 46.5633C183.216 45.0333 183.216 43.6101 183.216 42.0979C187.573 42.0979 191.913 42.0979 196.305 42.0979C196.305 43.5389 196.305 44.9799 196.305 46.4743C195.015 46.4743 193.743 46.4743 192.383 46.4743C192.383 51.242 192.383 55.9208 192.383 60.6886C190.641 60.7063 188.967 60.7063 187.224 60.7063Z" fill="black"/>
<path d="M106.512 42.0803C109.021 42.0803 111.462 42.0803 113.971 42.0803C113.971 48.289 113.971 54.4622 113.971 60.7065C112.455 60.7065 110.939 60.7065 109.318 60.7065C109.318 55.9565 109.318 51.1888 109.318 46.3321C108.324 46.3321 107.453 46.3321 106.512 46.3321C106.512 44.8911 106.512 43.5391 106.512 42.0803Z" fill="black"/>
<path d="M141.823 51.5267C141.823 53.2346 140.534 54.5511 138.86 54.5511C137.152 54.5511 135.845 53.2168 135.88 51.4556C135.897 49.7477 137.205 48.4669 138.895 48.4669C140.551 48.5024 141.823 49.8189 141.823 51.5267Z" fill="black"/>
</g>
</svg>
